<?xml version="1.0" encoding="UTF-8" standalone="no"?>
<!-- Created with Inkscape (http://www.inkscape.org/) -->

<svg
   xmlns:dc="http://purl.org/dc/elements/1.1/"
   xmlns:cc="http://creativecommons.org/ns#"
   xmlns:rdf="http://www.w3.org/1999/02/22-rdf-syntax-ns#"
   xmlns:svg="http://www.w3.org/2000/svg"
   xmlns="http://www.w3.org/2000/svg"
   xmlns:sodipodi="http://sodipodi.sourceforge.net/DTD/sodipodi-0.dtd"
   xmlns:inkscape="http://www.inkscape.org/namespaces/inkscape"
   width="229.30966"
   height="229.94403"
   viewBox="0 0 229.30966 229.94403"
   version="1.1"
   id="SVGRoot"
   sodipodi:docname="disk.svg"
   inkscape:export-filename="C:\Users\Gem\Desktop\cnhs_gts_static_site\img\disk.png"
   inkscape:export-xdpi="45.529247"
   inkscape:export-ydpi="45.529247"
   inkscape:version="0.92.3 (2405546, 2018-03-11)">
  <sodipodi:namedview
     id="base"
     pagecolor="#ffffff"
     bordercolor="#666666"
     borderopacity="1.0"
     inkscape:pageopacity="0.0"
     inkscape:pageshadow="2"
     inkscape:zoom="0.62"
     inkscape:cx="-231.29353"
     inkscape:cy="-2.7148446"
     inkscape:document-units="px"
     inkscape:current-layer="layer1"
     showgrid="false"
     inkscape:window-width="1366"
     inkscape:window-height="715"
     inkscape:window-x="-8"
     inkscape:window-y="-8"
     inkscape:window-maximized="1"
     fit-margin-top="0"
     fit-margin-left="0"
     fit-margin-right="0"
     fit-margin-bottom="0"
     showborder="false"
     inkscape:pagecheckerboard="true"
     inkscape:snap-bbox="true" />
  <defs
     id="defs2358" />
  <metadata
     id="metadata2361">
    <rdf:RDF>
      <cc:Work
         rdf:about="">
        <dc:format>image/svg+xml</dc:format>
        <dc:type
           rdf:resource="http://purl.org/dc/dcmitype/StillImage" />
        <dc:title></dc:title>
      </cc:Work>
    </rdf:RDF>
  </metadata>
  <g
     id="layer1"
     inkscape:groupmode="layer"
     inkscape:label="Layer 1"
     transform="translate(-956.77382,-202.17084)">
    <rect
       style="fill:#ffffff;fill-opacity:1;stroke-width:0;stroke-miterlimit:4;stroke-dasharray:none"
       id="rect3216"
       width="422.58066"
       height="404.83868"
       x="385.80612"
       y="143.40518" />
    <path
       style="fill:#e03141;fill-opacity:1;fill-rule:evenodd;stroke:none;stroke-width:1.32949924"
       d="m 660.35322,250.99601 -34.32744,54.50926 c 10.39336,6.62126 17.53528,16.44513 20.97673,27.39037 4.29921,13.69454 2.78882,29.12871 -5.44908,42.20859 -9.17509,14.57187 -24.54863,22.79394 -40.47946,23.40994 l 2.41576,64.48378 c 36.30793,-1.40932 71.33643,-20.1558 92.25311,-53.36084 4.22364,-6.70392 7.66639,-13.68242 10.36026,-20.81035 5.6527,-14.96787 7.99838,-30.66047 7.27057,-46.107 -0.47595,-9.94791 -2.23014,-19.79776 -5.21025,-29.27902 -7.82955,-24.94377 -24.12678,-47.3542 -47.8102,-62.44473 z"
       id="path1546"
       inkscape:connector-curvature="0" />
    <path
       id="path1728"
       style="fill:#00004c;fill-opacity:1;fill-rule:nonzero;stroke:none;stroke-width:1.33333325"
       d="m 598.70293,233.13858 c -30.7143,-0.0157 -60.89813,12.26975 -82.91993,35.14258 l 0.3321,0.32031 c -0.046,0.049 -0.093,0.0982 -0.1387,0.14649 v 0 c -1.0413,1.09334 -2.0638,2.21023 -3.0664,3.35156 -0.2454,0.27867 -0.4878,0.55913 -0.7305,0.8418 -1.0427,1.20933 -2.0658,2.44242 -3.0644,3.70508 -0.1774,0.22267 -0.3553,0.44848 -0.5313,0.67382 -1.056,1.35733 -2.0897,2.74025 -3.0937,4.15625 -0.095,0.132 -0.1886,0.26511 -0.2832,0.39844 -1.084,1.54134 -2.139,3.1127 -3.1563,4.7207 -0.6,0.94534 -1.1794,1.89752 -1.7461,2.85352 -0.196,0.328 -0.3842,0.65957 -0.5762,0.99023 -0.3693,0.636 -0.7358,1.27407 -1.0918,1.91407 -0.212,0.38 -0.4183,0.76186 -0.62496,1.14453 -0.33334,0.61333 -0.65852,1.22898 -0.97852,1.84765 -0.19466,0.37467 -0.39003,0.75096 -0.58203,1.12696 -0.36667,0.72933 -0.72222,1.46259 -1.07422,2.19726 -0.12133,0.256 -0.25242,0.51025 -0.37109,0.76758 -0.44933,0.956 -0.88078,1.91429 -1.30078,2.87695 -0.164,0.37734 -0.32047,0.75744 -0.48047,1.13477 -0.26533,0.62667 -0.52535,1.25348 -0.77735,1.88281 -0.17067,0.42134 -0.336,0.84296 -0.5,1.26563 -0.23467,0.604 -0.46483,1.20778 -0.6875,1.81445 -0.15467,0.41733 -0.30903,0.83595 -0.45703,1.25195 -0.24267,0.684 -0.47574,1.36936 -0.70508,2.05469 -0.11066,0.332 -0.22856,0.66277 -0.33789,0.9961 -0.31867,0.984 -0.62206,1.9716 -0.91406,2.96093 -0.104,0.35334 -0.20078,0.70783 -0.30078,1.0625 -0.19333,0.67867 -0.38116,1.3603 -0.5625,2.04297 -0.108,0.41066 -0.21241,0.8198 -0.31641,1.23047 -0.16267,0.64266 -0.31808,1.28764 -0.46875,1.93164 -0.096,0.40667 -0.18995,0.81208 -0.27929,1.21875 -0.16,0.716 -0.30913,1.43244 -0.45313,2.14844 -0.0653,0.32267 -0.13522,0.64546 -0.19922,0.9668 -0.19733,1.02666 -0.38206,2.0534 -0.55273,3.08007 -0.0413,0.25067 -0.0733,0.49872 -0.11328,0.74805 -0.12667,0.804 -0.24808,1.60678 -0.35742,2.41211 -0.048,0.36 -0.0933,0.72203 -0.13868,1.08203 -0.0907,0.712 -0.17595,1.42533 -0.25195,2.13867 -0.0387,0.36133 -0.0772,0.72327 -0.11328,1.08594 -0.0747,0.77333 -0.14117,1.54502 -0.20117,2.31836 -0.0213,0.28266 -0.0464,0.56437 -0.0664,0.8457 -0.076,1.06667 -0.13764,2.13451 -0.18164,3.20117 -0.003,0.056 -0.003,0.11197 -0.004,0.16797 -0.04,1.00134 -0.0674,2.00258 -0.082,3.00391 -0.004,0.28934 -0.003,0.57723 -0.004,0.86523 -0.007,0.788 -0.003,1.57599 0.006,2.36133 0.005,0.31333 0.009,0.6255 0.0156,0.9375 0.0173,0.81867 0.0454,1.63712 0.0801,2.45312 0.0107,0.24266 0.0192,0.48977 0.0312,0.73243 0.10667,2.148 0.27271,4.28978 0.49805,6.42578 0.0227,0.21333 0.0502,0.42729 0.0742,0.64062 0.0947,0.852 0.19917,1.70083 0.3125,2.54883 0.036,0.26934 0.0726,0.53793 0.11132,0.80859 0.11733,0.836 0.24486,1.67058 0.38086,2.50391 0.0373,0.22534 0.072,0.4485 0.10938,0.67383 0.36266,2.132 0.78367,4.25333 1.26367,6.36133 0.036,0.15734 0.0734,0.31275 0.10937,0.46875 0.204,0.88 0.42054,1.7562 0.64454,2.63086 0.0653,0.252 0.13254,0.50447 0.19921,0.75781 0.21466,0.808 0.43597,1.6153 0.66797,2.41797 0.068,0.23733 0.13441,0.47556 0.20508,0.71289 0.28,0.95334 0.57224,1.90294 0.87891,2.84961 0.02,0.0627 0.038,0.12483 0.0566,0.1875 0.34,1.044 0.69512,2.08251 1.06445,3.11718 0.048,0.136 0.0991,0.27025 0.14844,0.40625 0.30934,0.85734 0.62964,1.70927 0.95898,2.5586 0.104,0.26933 0.2117,0.53864 0.31836,0.80664 0.28934,0.732 0.58724,1.45889 0.89258,2.18555 0.10933,0.26134 0.21808,0.5232 0.33008,0.7832 0.504,1.17333 1.02569,2.34072 1.56836,3.49805 0.0413,0.0867 0.0837,0.17371 0.125,0.26171 0.52267,1.104 1.06438,2.20168 1.62305,3.29102 0.0853,0.16666 0.16856,0.33333 0.2539,0.5 0.604,1.164 1.22514,2.3195 1.86913,3.46484 0.044,0.0787 0.091,0.15572 0.1348,0.23438 0.6213,1.09734 1.2606,2.18501 1.9179,3.26367 0.073,0.11867 0.1448,0.23485 0.2168,0.35352 0.6987,1.136 1.4163,2.26166 2.1563,3.375 0.056,0.0853 0.1159,0.1699 0.1719,0.2539 0.7146,1.068 1.4472,2.12717 2.1992,3.17383 0.059,0.08 0.1132,0.16086 0.1719,0.24219 0.7893,1.092 1.6003,2.17356 2.4297,3.24023 0.076,0.0973 0.1557,0.19368 0.2304,0.29102 0.8027,1.02533 1.6229,2.03906 2.4629,3.03906 0.044,0.0547 0.087,0.10878 0.1328,0.16211 0.872,1.036 1.7677,2.0545 2.6797,3.0625 0.1053,0.11733 0.2137,0.23166 0.3203,0.34766 0.884,0.96933 1.7844,1.92647 2.7071,2.86914 0.032,0.0333 0.064,0.0663 0.096,0.0996 0.9493,0.96667 1.9215,1.91618 2.9082,2.85351 0.144,0.136 0.2863,0.27158 0.4316,0.40625 0.96,0.90266 1.9363,1.79269 2.9336,2.66602 0.025,0.0213 0.048,0.045 0.072,0.0664 1.016,0.88667 2.0515,1.75533 3.1035,2.61133 0.1906,0.15466 0.3841,0.30956 0.5761,0.46289 1.036,0.83334 2.0836,1.65375 3.1543,2.45508 0.013,0.009 0.025,0.02 0.039,0.0293 1.072,0.80266 2.1693,1.58418 3.2773,2.35351 0.2453,0.17067 0.4923,0.34044 0.7403,0.50977 1.1107,0.75867 2.2316,1.50709 3.3769,2.23242 20.4267,12.94267 43.38025,18.63282 65.85345,17.77149 l -2.4296,-64.48243 c -9.8573,0.38266 -19.9285,-2.10648 -28.8965,-7.78515 -1.0173,-0.644 -1.992,-1.32921 -2.9453,-2.03321 -0.1894,-0.13867 -0.3779,-0.27859 -0.5645,-0.41992 -1.9027,-1.44267 -3.6731,-2.99964 -5.31435,-4.65429 -0.136,-0.13601 -0.2723,-0.26892 -0.4043,-0.40626 -0.82,-0.84667 -1.6133,-1.7108 -2.3653,-2.60546 -0.015,-0.016 -0.028,-0.0354 -0.043,-0.0527 -0.7294,-0.868 -1.42,-1.76254 -2.084,-2.67187 -0.1093,-0.15067 -0.2201,-0.29855 -0.3281,-0.44922 -0.6667,-0.93467 -1.3037,-1.88542 -1.9024,-2.85742 -0.043,-0.072 -0.084,-0.14675 -0.1269,-0.21875 -0.5546,-0.912 -1.075,-1.83992 -1.5684,-2.78125 -0.087,-0.16533 -0.1744,-0.32686 -0.2598,-0.49219 -0.512,-1.004 -0.9928,-2.02136 -1.4355,-3.05469 -0.013,-0.0333 -0.034,-0.0644 -0.047,-0.0977 -0.048,-0.11201 -0.087,-0.22909 -0.1348,-0.34376 -0.2986,-0.71733 -0.5809,-1.43925 -0.8476,-2.16992 -0.079,-0.216 -0.1545,-0.43306 -0.2305,-0.65039 -0.244,-0.7 -0.4735,-1.4059 -0.6855,-2.11523 -0.06,-0.19733 -0.1223,-0.39509 -0.1797,-0.59375 -0.248,-0.864 -0.477,-1.73142 -0.6797,-2.60742 -0.01,-0.0293 -0.015,-0.0606 -0.022,-0.0898 -0.2173,-0.94666 -0.405,-1.89875 -0.5664,-2.85742 -0.019,-0.108 -0.032,-0.21684 -0.051,-0.32617 -0.1294,-0.804 -0.242,-1.61255 -0.334,-2.42188 -0.027,-0.24267 -0.048,-0.48451 -0.072,-0.72851 -0.069,-0.69734 -0.1221,-1.39375 -0.1621,-2.09375 -0.016,-0.26 -0.031,-0.51735 -0.041,-0.77735 -0.032,-0.76134 -0.044,-1.52248 -0.043,-2.28515 v -0.51758 c 0.012,-0.94266 0.05,-1.88484 0.1152,-2.82617 0.011,-0.14933 0.029,-0.3005 0.041,-0.45117 0.061,-0.772 0.1404,-1.54183 0.2364,-2.3125 0.037,-0.296 0.083,-0.59268 0.125,-0.88868 0.092,-0.636 0.1965,-1.2722 0.3125,-1.9082 0.059,-0.316 0.1176,-0.63259 0.1816,-0.94726 0.1347,-0.656 0.2853,-1.30894 0.4453,-1.96094 0.065,-0.26667 0.1241,-0.53607 0.1934,-0.80274 0.2387,-0.904 0.499,-1.80517 0.791,-2.70116 0.044,-0.13733 0.097,-0.27025 0.1426,-0.40625 0.2546,-0.76133 0.5263,-1.51949 0.8183,-2.27149 0.1174,-0.3 0.2426,-0.59524 0.3653,-0.89258 0.2453,-0.59733 0.5027,-1.19254 0.7734,-1.7832 0.144,-0.316 0.2894,-0.63064 0.4414,-0.94531 0.2894,-0.6 0.5955,-1.19573 0.9102,-1.78907 0.1466,-0.27333 0.2855,-0.54698 0.4375,-0.82031 0.4734,-0.852 0.9668,-1.70048 1.4961,-2.53515 1.5587,-2.464 3.306,-4.73222 5.1953,-6.82422 0.3667,-0.40533 0.7281,-0.81503 1.1054,-1.20703 l -0.3202,-0.31058 c 16.29735,-16.63461 42.52475,-20.23631 62.99015,-7.26758 l 34.5254,-54.50976 c -19.0667,-12.077 -40.3287,-17.84668 -61.3438,-17.85743 z"
       inkscape:connector-curvature="0" />
    <text
       xml:space="preserve"
       style="font-style:normal;font-variant:normal;font-weight:normal;font-stretch:normal;font-size:32px;line-height:1.25;font-family:Roboto;-inkscape-font-specification:'Roboto, Normal';font-variant-ligatures:normal;font-variant-caps:normal;font-variant-numeric:normal;font-feature-settings:normal;text-align:start;letter-spacing:0px;word-spacing:0px;writing-mode:lr-tb;text-anchor:start;fill:#000000;fill-opacity:1;stroke:none;stroke-width:1.03572047"
       x="431.95602"
       y="289.30035"
       id="text3212"
       transform="scale(0.96551145,1.0357205)"
       inkscape:export-xdpi="45.529247"
       inkscape:export-ydpi="45.529247"><tspan
         sodipodi:role="line"
         id="tspan3320"
         x="431.95602"
         y="289.30035"
         style="font-style:normal;font-variant:normal;font-weight:normal;font-stretch:normal;font-size:32px;font-family:Roboto;-inkscape-font-specification:'Roboto, Normal';font-variant-ligatures:normal;font-variant-caps:normal;font-variant-numeric:normal;font-feature-settings:normal;text-align:start;writing-mode:lr-tb;text-anchor:start;fill:#000000;fill-opacity:1;stroke-width:1.03572047">55%</tspan></text>
    <text
       xml:space="preserve"
       style="font-style:normal;font-variant:normal;font-weight:normal;font-stretch:normal;font-size:34.330513px;line-height:1.25;font-family:Roboto;-inkscape-font-specification:'Roboto, Normal';font-variant-ligatures:normal;font-variant-caps:normal;font-variant-numeric:normal;font-feature-settings:normal;text-align:start;letter-spacing:0px;word-spacing:0px;writing-mode:lr-tb;text-anchor:start;fill:#000000;fill-opacity:1;stroke:none;stroke-width:1.60925019"
       x="444.854"
       y="176.95563"
       id="text3233"
       transform="scale(0.89943038,1.1118148)"><tspan
         sodipodi:role="line"
         id="tspan3322"
         x="444.854"
         y="176.95563"
         style="stroke-width:1.60925019">RAM Usage:</tspan></text>
    <text
       xml:space="preserve"
       style="font-style:normal;font-variant:normal;font-weight:normal;font-stretch:normal;font-size:25.81736755px;line-height:1.25;font-family:Roboto;-inkscape-font-specification:'Roboto, Normal';font-variant-ligatures:normal;font-variant-caps:normal;font-variant-numeric:normal;font-feature-settings:normal;text-align:start;letter-spacing:0px;word-spacing:0px;writing-mode:lr-tb;text-anchor:start;fill:#000000;fill-opacity:1;stroke:none;stroke-width:1.2101891"
       x="505.05057"
       y="425.73004"
       id="text3233-5"
       inkscape:transform-center-x="-161.29032"
       inkscape:transform-center-y="-274.01402"
       transform="scale(0.82631714,1.2101891)"><tspan
         sodipodi:role="line"
         id="tspan3298"
         x="505.05057"
         y="425.73004"
         style="stroke-width:1.2101891">Free: 45%</tspan><tspan
         sodipodi:role="line"
         id="tspan3300"
         x="505.05057"
         y="458.00174"
         style="stroke-width:1.2101891"></tspan></text>
    <text
       xml:space="preserve"
       style="font-style:normal;font-variant:normal;font-weight:normal;font-stretch:normal;font-size:25.81736755px;line-height:1.25;font-family:Roboto;-inkscape-font-specification:'Roboto, Normal';font-variant-ligatures:normal;font-variant-caps:normal;font-variant-numeric:normal;font-feature-settings:normal;text-align:start;letter-spacing:0px;word-spacing:0px;writing-mode:lr-tb;text-anchor:start;fill:#000000;fill-opacity:1;stroke:none;stroke-width:1.2101891"
       x="823.72229"
       y="426.00208"
       id="text3233-5-4"
       inkscape:transform-center-x="-161.29033"
       inkscape:transform-center-y="-274.01401"
       transform="scale(0.82631714,1.2101891)"><tspan
         sodipodi:role="line"
         id="tspan3294"
         x="823.72229"
         y="426.00208"
         style="stroke-width:1.2101891">Used: 55%</tspan><tspan
         sodipodi:role="line"
         id="tspan3296"
         x="823.72229"
         y="458.27377"
         style="stroke-width:1.2101891"></tspan></text>
    <text
       xml:space="preserve"
       style="font-style:normal;font-variant:normal;font-weight:normal;font-stretch:normal;font-size:32px;line-height:1.25;font-family:Roboto;-inkscape-font-specification:'Roboto, Normal';font-variant-ligatures:normal;font-variant-caps:normal;font-variant-numeric:normal;font-feature-settings:normal;text-align:start;letter-spacing:0px;word-spacing:0px;writing-mode:lr-tb;text-anchor:start;fill:#000000;fill-opacity:1;stroke:none;stroke-width:1.03572047"
       x="748.77856"
       y="397.85782"
       id="text3212-9"
       transform="scale(0.96551145,1.0357205)"><tspan
         sodipodi:role="line"
         id="tspan3214-3"
         x="748.77856"
         y="397.85782"
         style="font-style:normal;font-variant:normal;font-weight:normal;font-stretch:normal;font-size:32px;font-family:Roboto;-inkscape-font-specification:'Roboto, Normal';font-variant-ligatures:normal;font-variant-caps:normal;font-variant-numeric:normal;font-feature-settings:normal;text-align:start;writing-mode:lr-tb;text-anchor:start;fill:#000000;fill-opacity:1;stroke-width:1.03572047">45%</tspan></text>
  </g>
</svg>
